<svg width="512" height="512" xmlns="http://www.w3.org/2000/svg">

 <g>
  <title>background</title>
  <rect fill="none" id="canvas_background" height="402" width="582" y="-1" x="-1"/>
 </g>
 <g>
  <title>Layer 1</title>
  <path stroke="null" id="svg_3" fill="#ffffff" d="m304.890977,360.972764c-0.08129,3.924256 -0.16258,7.848513 -0.16258,11.772769c0,20.684102 -0.08129,41.368204 0.08129,62.052306c0,3.188458 -0.569031,4.496544 -4.145799,4.414789c-25.037377,-0.163511 -50.074754,-0.163511 -75.11213,0c-3.170317,0 -4.22709,-0.899309 -4.145799,-4.169523c0.16258,-11.445748 0.08129,-22.891496 0,-34.255489c0,-1.062819 1.300643,-3.106703 -1.381933,-3.188458c-0.569031,0 -1.056772,0.081755 -1.625804,0.081755c-1.056772,-0.490532 -2.032255,-0.408777 -2.682576,0.735798c-10.079983,1.062819 -20.241256,1.880373 -30.239949,-0.654043c-17.72126,-4.496544 -30.402529,-15.042983 -38.206387,-31.802829c-5.039991,-10.955216 -11.705787,-21.092879 -19.428354,-30.412988c-2.438706,-2.943192 -6.340634,-4.087767 -8.94192,-7.03096c-0.975482,-1.144575 -2.601286,-2.043884 -2.113545,-3.597235c0.487741,-1.880373 2.519996,-1.798618 4.145799,-1.962128c16.258037,-1.389841 27.801243,6.376917 35.848971,19.784793c7.397407,12.263301 17.070939,21.338145 31.05285,25.017135c9.917402,2.616171 19.834805,2.043884 29.589627,-0.981064c2.276125,-0.735798 3.495478,-1.716862 3.739348,-4.496544c0.731612,-10.137663 2.845156,-19.948304 9.836112,-28.532615c-2.682576,-0.490532 -4.796121,-0.981064 -6.990956,-1.308085c-17.233519,-2.616171 -33.247685,-8.584311 -47.148307,-19.294261c-15.526425,-11.93628 -25.199957,-27.878572 -28.207694,-47.418099c-2.601286,-17.086867 -1.625804,-34.255489 0.569031,-51.342356c1.707094,-13.16261 5.365152,-25.671178 14.794814,-35.481819c3.332898,-3.433724 3.576768,-6.213406 2.113545,-10.546439c-4.958701,-14.552451 -3.576768,-29.186658 0.894192,-43.739109c0.812902,-2.697926 2.032255,-3.51548 4.958701,-2.779682c10.974175,2.697926 19.428354,9.156598 27.069631,17.005111c3.739348,3.760746 6.909666,8.012024 9.998693,12.263301c0.894192,1.22633 1.544514,1.880373 3.089027,0.654043c5.852893,-4.660055 12.925139,-6.131651 19.997385,-7.19447c20.485126,-2.943192 41.051543,-3.024948 61.53667,-0.081755c6.828375,0.981064 13.738041,2.207394 19.428354,6.540427c2.682576,2.043884 3.739348,0.899309 5.202572,-1.22633c5.446442,-8.012024 12.112237,-14.879472 19.916095,-20.520591c4.958701,-3.597235 10.486434,-6.049895 16.501907,-7.521492c2.601286,-0.654043 3.658058,0.081755 4.47096,2.45266c5.527733,15.697026 6.340634,31.394052 0.16258,47.091078c-0.731612,1.962128 -1.219353,3.351969 0.569031,5.068831c9.998693,9.48362 14.713523,21.583411 16.664488,34.909532c2.357415,16.187558 3.739348,32.456871 1.869674,48.889695c-3.089027,27.633306 -17.070939,47.74512 -41.295414,60.907731c-0.894192,-0.081755 -1.625804,0.163511 -1.950964,1.062819c-0.650321,0.327021 -1.300643,0.654043 -1.869674,0.899309c-2.113545,0.081755 -3.901929,0.981064 -5.365152,2.370905c-0.650321,0.245266 -1.381933,0.408777 -2.032255,0.654043c-0.975482,-0.245266 -1.625804,0.163511 -2.032255,0.981064c-0.406451,0.081755 -0.894192,0.245266 -1.300643,0.327021c-3.251607,0.490532 -6.503215,0.899309 -9.267081,2.861437c-0.406451,0.081755 -0.894192,0.163511 -1.300643,0.245266c-2.357415,-0.081755 -4.714831,0.081755 -6.747085,1.553352c-1.788384,0.245266 -3.495478,0.490532 -5.283862,0.735798c-1.381933,0.081755 -2.926447,-0.081755 -4.145799,0.408777c-1.300643,0.572287 -0.731612,1.389841 0.406451,1.716862l0.08129,0.081755c0.08129,1.144575 0.650321,1.962128 1.707094,2.28915c0.650321,1.308085 1.300643,2.616171 1.950964,3.842501c0.16258,1.716862 0.487741,3.351969 1.950964,4.496544c0.16258,0.735798 0.325161,1.389841 0.487741,2.125639c0.406451,2.28915 0.406451,4.578299 1.707094,6.622183c0.08129,0.490532 0.16258,0.981064 0.243871,1.389841c-0.487741,0.981064 -0.243871,1.880373 0.487741,2.697926c-0.08129,0.899309 -0.08129,1.716862 0,2.534416z"/>
 </g>
</svg>